<svg xmlns="http://www.w3.org/2000/svg" viewBox="0 0 196 196"><defs><style>.cls-1{fill:#3f3f3f;}.cls-2{fill:#e4754b;}.cls-3{fill:#34c094;}.cls-4{fill:#f0c34a;}.cls-5{fill:#46a8dc;}</style></defs><title>资源 80</title><g id="图层_2" data-name="图层 2"><g id="图层_1-2" data-name="图层 1"><circle class="cls-1" cx="98" cy="98" r="98"/><path class="cls-2" d="M106.88,72.57l-19-19a1,1,0,0,0-1.37,0l-7.55,7.55a1,1,0,0,0,0,1.38L97.77,81.31a11.88,11.88,0,0,1,0,16.81A11.67,11.67,0,0,1,81.48,98L54,70.51a11.67,11.67,0,0,1-.14-16.33,11.86,11.86,0,0,1,16.8,0L73.43,57a1,1,0,0,0,1.37,0l7.55-7.56a1,1,0,0,0,0-1.37l-2.93-2.93a24.25,24.25,0,0,0-34.31,0h0a24.27,24.27,0,0,0,0,34.33L72.56,106.9a24.26,24.26,0,0,0,34.32,0h0A24.29,24.29,0,0,0,106.88,72.57Z"/><path class="cls-3" d="M150.89,45.11a24.25,24.25,0,0,0-34.31,0L98,63.7l8.88,8.88,0,0L125.5,54A11.65,11.65,0,1,1,142,70.52l-2.92,2.92a1,1,0,0,0,0,1.37l7.55,7.56a1,1,0,0,0,1.37,0l2.92-2.93A24.27,24.27,0,0,0,150.89,45.11Z"/><path class="cls-3" d="M134.93,78.93a1,1,0,0,0-1.38,0l-19,19a11.92,11.92,0,0,1-2.83,2.08A11.67,11.67,0,0,1,98,98l0,0a11.67,11.67,0,0,1,0-16.39l-8.92-8.92a24.27,24.27,0,0,0,34.36,34.28l19-19a1,1,0,0,0,0-1.37Z"/><path class="cls-4" d="M150.89,116.61,132.32,98,123.4,107,142,125.53a11.67,11.67,0,0,1,.14,16.34,11.87,11.87,0,0,1-16.8-.05l-2.74-2.74a1,1,0,0,0-1.37,0l-7.55,7.55a1,1,0,0,0,0,1.38l2.62,2.62c9.51,9.51,25.31,9.76,34.75.18a24.28,24.28,0,0,0-.13-34.2Z"/><path class="cls-4" d="M117.08,135a1,1,0,0,0,0-1.37l-19-19A11.82,11.82,0,0,1,96,111.71a11.68,11.68,0,0,1,2.09-13.64l0,0a11.66,11.66,0,0,1,16.38,0l8.93-8.92a24.27,24.27,0,0,0-34.28,34.37l19,19a1,1,0,0,0,1.37,0Z"/><path class="cls-5" d="M112.56,98.07a21.63,21.63,0,0,0-.87-2.13,23.94,23.94,0,0,0-4.81-6.84,24.25,24.25,0,0,0-6.81-4.8c-.68-.32-1.36-.6-2.06-.86a24.27,24.27,0,0,0-25.4,5.62L81.53,98a11.35,11.35,0,0,1,2.79-2A11.67,11.67,0,0,1,98,98l0,0a11.66,11.66,0,0,1,0,16.39l8.93,8.92A24.27,24.27,0,0,0,112.56,98.07Z"/><path class="cls-5" d="M62.43,117.09,72.61,106.9,63.69,98,53.51,108.16a1,1,0,0,0,0,1.38l7.54,7.55A1,1,0,0,0,62.43,117.09Z"/><path class="cls-5" d="M70.5,142A11.65,11.65,0,0,1,54,125.49l2.91-2.91a1,1,0,0,0,0-1.37l-7.55-7.55a1,1,0,0,0-1.37,0l-2.91,2.9a24.27,24.27,0,1,0,34.32,34.33L98,132.31l-8.92-8.93Z"/></g></g></svg>